<?xml version="1.0" standalone="no"?>
<!DOCTYPE svg PUBLIC "-//W3C//DTD SVG 20010904//EN"
 "http://www.w3.org/TR/2001/REC-SVG-20010904/DTD/svg10.dtd">
<svg version="1.0" xmlns="http://www.w3.org/2000/svg"
 width="512.000000pt" height="512.000000pt" viewBox="0 0 512.000000 512.000000"
 preserveAspectRatio="xMidYMid meet">
<metadata>
Created by potrace 1.15, written by Peter Selinger 2001-2017
</metadata>
<g transform="translate(0.000000,512.000000) scale(0.100000,-0.100000)"
fill="#000000" stroke="none">
<path d="M2300 5113 c-365 -64 -655 -349 -724 -712 -13 -69 -16 -170 -16 -602
l0 -519 -138 0 c-108 0 -142 3 -160 16 -22 15 -22 16 -22 322 0 225 -4 325
-14 373 -76 356 -519 488 -775 231 -32 -32 -68 -77 -81 -101 -53 -105 -53
-106 -57 -576 -5 -478 1 -580 42 -697 81 -232 273 -407 512 -468 68 -18 111
-20 384 -20 l309 0 2 -1129 c3 -1128 3 -1130 24 -1158 11 -15 36 -38 54 -51
l33 -22 781 2 781 3 33 23 c59 43 67 69 70 254 l4 166 356 4 c332 4 362 6 430
26 270 82 476 257 591 504 85 181 93 263 89 923 -4 507 -4 522 -26 586 -57
171 -203 309 -373 354 -69 19 -209 19 -278 0 -170 -45 -317 -184 -373 -354
-20 -62 -22 -89 -27 -499 l-6 -434 -24 -19 c-21 -17 -41 -19 -192 -19 l-168 0
-4 1423 -3 1422 -22 85 c-88 331 -353 588 -677 655 -69 14 -272 19 -335 8z"/>
</g>
</svg>
